<?xml version="1.0" encoding="UTF-8" standalone="no"?>
<!-- Created with Inkscape (http://www.inkscape.org/) -->
<svg
   xmlns:dc="http://purl.org/dc/elements/1.1/"
   xmlns:cc="http://web.resource.org/cc/"
   xmlns:rdf="http://www.w3.org/1999/02/22-rdf-syntax-ns#"
   xmlns:svg="http://www.w3.org/2000/svg"
   xmlns="http://www.w3.org/2000/svg"
   xmlns:sodipodi="http://sodipodi.sourceforge.net/DTD/sodipodi-0.dtd"
   xmlns:inkscape="http://www.inkscape.org/namespaces/inkscape"
   width="744.09448819"
   height="1052.3622047"
   id="svg2"
   inkscape:label="Pozadí"
   sodipodi:version="0.32"
   inkscape:version="0.44.1"
   sodipodi:docbase="/windows/E/Projekt_Kliparty/9.C prace/Jakeschova/Cliparty/činnosti"
   sodipodi:docname="zpěv.svg">
  <defs
     id="defs8220" />
  <sodipodi:namedview
     id="base"
     pagecolor="#ffffff"
     bordercolor="#666666"
     borderopacity="1.0"
     inkscape:pageopacity="0.0"
     inkscape:pageshadow="2"
     inkscape:zoom="0.52548449"
     inkscape:cx="381.56227"
     inkscape:cy="445.77287"
     inkscape:document-units="px"
     inkscape:current-layer="layer1"
     inkscape:window-width="1024"
     inkscape:window-height="719"
     inkscape:window-x="-4"
     inkscape:window-y="-4"
     showguides="true"
     inkscape:guide-bbox="true" />
  <metadata
     id="metadata8223">
    <rdf:RDF>
      <cc:Work
         rdf:about="">
        <dc:format>image/svg+xml</dc:format>
        <dc:type
           rdf:resource="http://purl.org/dc/dcmitype/StillImage" />
        <dc:title>zpev</dc:title>
        <dc:creator>
          <cc:Agent>
            <dc:title>Jakeschova Jana</dc:title>
          </cc:Agent>
        </dc:creator>
        <dc:publisher>
          <cc:Agent>
            <dc:title>ZS a MS Machovo nam.</dc:title>
          </cc:Agent>
        </dc:publisher>
        <dc:language>cz</dc:language>
        <dc:subject>
          <rdf:Bag>
            <rdf:li>zpev</rdf:li>
            <rdf:li>sing</rdf:li>
          </rdf:Bag>
        </dc:subject>
        <cc:license
           rdf:resource="http://web.resource.org/cc/PublicDomain" />
      </cc:Work>
      <cc:License
         rdf:about="http://web.resource.org/cc/PublicDomain">
        <cc:permits
           rdf:resource="http://web.resource.org/cc/Reproduction" />
        <cc:permits
           rdf:resource="http://web.resource.org/cc/Distribution" />
        <cc:permits
           rdf:resource="http://web.resource.org/cc/DerivativeWorks" />
      </cc:License>
    </rdf:RDF>
  </metadata>
  <g
     inkscape:label="Vrstva 1"
     inkscape:groupmode="layer"
     id="layer1">
    <g
       id="g7318"
       inkscape:export-filename="/windows/E/Projekt_Kliparty/9.C prace/Jakeschova/Cliparty/činnosti/zpev.png"
       inkscape:export-xdpi="90"
       inkscape:export-ydpi="90">
      <rect
         y="-1.9030057"
         x="0.00000000"
         height="1058.0712"
         width="747.98151"
         id="rect6142"
         style="fill:#74e2b4;fill-opacity:1.0000000;fill-rule:nonzero;stroke:#31bae0;stroke-width:0.00000000;stroke-miterlimit:4.0000000;stroke-dasharray:none;stroke-dashoffset:0.00000000;stroke-opacity:1.0000000" />
      <path
         id="path6140"
         d="M 232.19757,747.40551 L 188.42256,848.26481 L 158.92202,937.70609 L 137.98615,1031.9049 L 134.17963,1054.7410 L 290.24701,1054.7410 L 290.24701,1049.9835 L 280.73071,1047.1290 L 268.35952,1040.4684 L 252.18180,1020.4869 L 240.76223,994.79629 L 232.19757,958.63919 L 233.14919,924.38504 L 257.89158,790.22314 L 232.19757,747.40551 z "
         style="fill:#313541;fill-opacity:1.0000000;fill-rule:evenodd;stroke:#000000;stroke-width:1.0000670px;stroke-linecap:butt;stroke-linejoin:miter;stroke-opacity:1.0000000" />
      <path
         id="path6138"
         d="M 450.12219,748.83277 L 493.89719,849.69207 L 523.39774,939.13334 L 544.33360,1033.3321 L 548.14012,1056.1682 L 392.07274,1056.1682 L 392.07274,1051.4107 L 401.58905,1048.5562 L 413.96023,1041.8956 L 430.13795,1021.9141 L 441.55752,996.22352 L 450.12219,960.06641 L 449.17056,925.81230 L 424.42818,791.65040 L 450.12219,748.83277 z "
         style="fill:#313541;fill-opacity:1.0000000;fill-rule:evenodd;stroke:#000000;stroke-width:1.0000670px;stroke-linecap:butt;stroke-linejoin:miter;stroke-opacity:1.0000000" />
      <path
         sodipodi:nodetypes="cccccccccccccccccccccccccccccccccccccccccccccccccccscccccccccccccccccc"
         id="path6110"
         d="M 355.43395,356.81358 L 366.85351,359.19234 L 378.27307,364.90135 L 393.02335,370.61037 L 398.73313,375.84364 L 405.39455,388.68892 L 416.33829,419.61277 L 417.76573,431.98231 L 419.19318,456.72138 L 422.04808,476.70294 L 425.85460,508.57829 L 428.70949,535.22037 L 429.18530,541.40514 L 433.46764,544.25965 L 435.84672,549.01716 L 435.84672,555.67768 L 432.51601,557.10493 L 432.51601,561.38670 L 435.84672,562.33820 L 436.32253,567.57147 L 433.46764,569.47447 L 436.32253,567.57147 L 440.60486,571.85323 L 471.05703,589.93178 L 478.67008,593.26204 L 488.18639,595.64080 L 487.71057,572.32898 L 495.79943,574.23199 L 500.55758,576.13499 L 450.12117,660.81875 L 437.74997,654.15823 L 425.37878,644.64320 L 433.94345,681.27606 L 433.46764,682.70331 L 428.70949,684.13057 L 422.99970,685.08207 L 416.81411,684.60632 L 396.35405,677.94580 L 384.45867,674.61554 L 374.46655,673.18829 L 367.32933,674.61554 L 362.09536,676.51855 L 358.76466,677.47005 L 351.15161,678.89730 L 343.53857,681.27606 L 334.02226,687.46083 L 328.31248,694.12135 L 273.11792,834.94377 L 189.37444,839.70129 L 192.22934,826.85600 L 188.42282,815.91372 C 188.42282,815.91372 186.51955,798.31091 186.51955,796.40791 C 186.51955,794.50490 187.47119,766.91132 187.47119,766.91132 L 184.14048,737.89048 L 181.76140,709.34539 L 180.33396,664.62476 L 178.43070,641.78869 L 176.05162,627.51615 L 163.20461,599.44681 L 149.88178,565.66846 L 135.60733,515.71456 L 127.51848,490.49973 L 122.76032,448.63361 L 122.28450,406.29173 L 130.37336,389.64043 L 141.79293,376.31939 L 153.21249,367.75586 L 164.15624,363.47410 L 212.68939,324.46248 L 355.43395,356.81358 z "
         style="fill:#363b34;fill-opacity:1.0000000;fill-rule:evenodd;stroke:#000000;stroke-width:1.0000670px;stroke-linecap:butt;stroke-linejoin:miter;stroke-opacity:1.0000000" />
      <path
         sodipodi:nodetypes="ccccccccccc"
         id="path6048"
         d="M 503.16996,791.17739 C 513.41895,794.46119 508.01947,810.09371 503.34263,816.55111 C 496.41976,827.37873 486.59867,835.75217 475.54118,841.91885 C 464.60828,849.33474 451.97481,857.10836 450.73802,871.84808 C 449.07540,881.28191 451.49512,890.87621 452.06009,900.33486 C 454.46096,916.43701 458.94293,932.39851 457.32569,948.84615 C 455.35459,968.97307 451.97586,989.39507 443.41654,1007.8335 C 438.33234,1019.2921 430.76307,1029.4793 422.41008,1038.6628 C 416.73419,1041.7482 400.50046,1053.4393 397.44890,1049.8950 C 416.16757,965.40814 439.64438,879.96975 458.36306,795.48287 C 473.29869,794.04770 488.23432,792.61255 503.16996,791.17739 z "
         style="fill:#fefefe;fill-opacity:1.0000000;fill-rule:evenodd;stroke:#000000;stroke-width:0.99843150px;stroke-linecap:butt;stroke-linejoin:miter;stroke-opacity:1.0000000" />
      <path
         sodipodi:nodetypes="cccccccccccccc"
         id="path3700"
         d="M 438.96501,670.66306 C 417.81481,703.11983 387.62765,659.20878 357.06471,674.61009 C 323.36032,677.73764 312.94055,710.83105 307.48370,739.69510 C 299.64657,762.25452 301.06032,791.98491 271.19900,786.98885 C 236.08079,798.07598 197.96903,810.27006 176.36249,842.94089 C 150.80309,873.06982 148.69313,918.04503 159.98288,954.65176 C 169.03185,980.24703 182.86308,1005.3555 207.20728,1018.7920 C 258.00764,1062.6187 268.95616,1056.2699 319.86509,1056.8017 C 379.78164,1053.3252 392.58048,1065.6443 414.20649,1038.5126 C 446.28860,1005.2870 454.20486,955.80244 446.49172,911.34154 C 439.00692,887.23249 436.84451,855.24244 463.46838,842.63924 C 480.60552,831.84916 506.11086,814.87131 499.05745,791.48294 C 478.56848,794.09233 445.47962,794.07264 446.48125,763.25556 C 443.63572,732.43168 441.47744,701.52586 438.96501,670.66306 z "
         style="fill:#6b6ed3;fill-opacity:1.0000000;fill-rule:evenodd;stroke:#000000;stroke-width:1.0075221px;stroke-linecap:butt;stroke-linejoin:miter;stroke-opacity:1.0000000" />
      <path
         id="path6054"
         d="M 395.40243,749.78427 L 440.12905,778.32935 L 610.94671,468.61517 L 580.49454,448.63361 L 395.40243,749.78427 z "
         style="fill:#49444a;fill-opacity:1.0000000;fill-rule:evenodd;stroke:#000000;stroke-width:1.0000670px;stroke-linecap:butt;stroke-linejoin:miter;stroke-opacity:1.0000000" />
      <path
         sodipodi:nodetypes="ccccccccccc"
         id="path3714"
         d="M 629.12210,413.38385 C 630.85302,414.89074 628.29475,413.12803 631.62466,415.81123 C 630.63068,417.68465 630.46871,420.25275 632.10409,422.13965 C 633.89658,423.74882 636.14030,425.50022 638.68532,425.24175 C 641.14909,424.59645 643.84733,423.97945 645.81864,422.25000 C 647.51413,420.24329 649.43776,417.92085 649.46836,415.15623 C 648.78430,413.16626 647.95604,411.10112 646.73356,409.40450 C 644.89158,407.65990 642.44423,406.68401 639.97148,407.58163 C 637.45395,407.44233 635.54885,411.84450 633.78008,410.07401 C 632.45001,409.74165 629.65775,407.05293 628.31942,408.99244 C 627.17676,410.52634 626.87848,411.99815 629.12210,413.38385 z "
         style="fill:#fffaf7;fill-opacity:1.0000000;fill-rule:evenodd;stroke:#000000;stroke-width:1.0866547px;stroke-linecap:butt;stroke-linejoin:miter;stroke-opacity:1.0000000" />
      <path
         sodipodi:nodetypes="ccccccccccc"
         id="path3716"
         d="M 620.50446,431.17519 C 622.23538,432.68208 619.67711,430.91937 623.00701,433.60257 C 622.01304,435.47599 621.85107,438.04409 623.48645,439.93099 C 625.27894,441.54016 627.52266,443.29156 630.06768,443.03309 C 632.53145,442.38779 635.22969,441.77079 637.20099,440.04134 C 638.89648,438.03463 640.82012,435.71219 640.85071,432.94757 C 640.16665,430.95760 639.33840,428.89246 638.11592,427.19584 C 636.27394,425.45124 633.82658,424.47535 631.35384,425.37297 C 628.83630,425.23367 626.93121,429.63584 625.16243,427.86535 C 623.83236,427.53299 621.04011,424.84427 619.70178,426.78378 C 618.55912,428.31768 618.26084,429.78949 620.50446,431.17519 z "
         style="fill:#fffaf7;fill-opacity:1.0000000;fill-rule:evenodd;stroke:#000000;stroke-width:1.0866547px;stroke-linecap:butt;stroke-linejoin:miter;stroke-opacity:1.0000000" />
      <path
         sodipodi:nodetypes="ccccccccccc"
         id="path3718"
         d="M 612.09315,448.33195 C 613.82407,449.83884 611.26580,448.07613 614.59570,450.75933 C 613.60173,452.63275 613.43976,455.20085 615.07514,457.08775 C 616.86763,458.69692 619.11135,460.44832 621.65637,460.18985 C 624.12014,459.54455 626.81838,458.92755 628.78969,457.19810 C 630.48517,455.19139 632.40881,452.86895 632.43941,450.10433 C 631.75534,448.11436 630.92709,446.04922 629.70461,444.35260 C 627.86263,442.60800 625.41527,441.63211 622.94253,442.52973 C 620.42500,442.39043 618.51990,446.79260 616.75112,445.02211 C 615.42106,444.68975 612.62880,442.00103 611.29047,443.94054 C 610.14781,445.47444 609.84953,446.94625 612.09315,448.33195 z "
         style="fill:#fffaf7;fill-opacity:1.0000000;fill-rule:evenodd;stroke:#000000;stroke-width:1.0866547px;stroke-linecap:butt;stroke-linejoin:miter;stroke-opacity:1.0000000" />
      <path
         id="path2917"
         d="M 602.92225,352.63548 L 619.07195,361.38206 L 627.81971,364.07332 L 638.58618,374.83835 L 641.27779,381.56649 L 650.02555,389.64026 L 610.32419,469.70514 L 580.04351,448.84790 L 579.37060,439.42850 L 576.67898,431.35473 L 573.98736,427.99066 L 585.42674,401.07810 L 591.48288,380.89367 L 596.86611,360.03644 L 602.92225,352.63548 z "
         style="fill:#6b6ed3;fill-opacity:1.0000000;fill-rule:evenodd;stroke:#000000;stroke-width:1.0000670px;stroke-linecap:butt;stroke-linejoin:miter;stroke-opacity:1.0000000" />
      <path
         sodipodi:nodetypes="ccccccc"
         id="path8280"
         d="M 431.87739,190.06008 C 422.58443,186.82640 407.24678,182.70518 399.06864,188.01395 C 390.67019,194.30403 389.68854,208.38087 391.65640,219.54344 C 397.81831,228.29733 407.91133,230.27781 416.96792,231.61591 C 423.93823,231.38867 439.07138,223.52125 430.06119,217.88725 C 418.00002,214.96815 419.12407,203.18079 426.77009,197.04756 C 428.67839,194.83159 430.64980,192.60498 431.87739,190.06008 z "
         style="fill:#646371;fill-opacity:1.0000000;fill-rule:evenodd;stroke:#000000;stroke-width:1.0137043px;stroke-linecap:butt;stroke-linejoin:miter;stroke-opacity:1.0000000" />
      <path
         id="path8278"
         d="M 552.42143,173.17352 L 428.23368,191.72783 L 421.57226,198.86410 L 416.81411,208.37913 L 418.71737,215.99115 L 429.66112,224.55468 L 454.40350,220.74867 L 480.57334,216.46690 L 488.66220,217.89416 L 499.13013,225.50618 L 501.98503,234.06971 L 507.21899,258.80878 L 530.05812,254.05127 L 524.82416,237.39997 L 523.87252,224.55468 L 528.63068,217.41841 L 536.24372,211.70939 L 534.81628,208.37913 L 540.52606,206.00037 L 560.03447,202.67011 L 565.74426,199.81560 L 564.79263,189.82482 L 584.30106,186.49456 L 584.77687,180.78554 L 560.98611,182.21280 L 560.03447,176.50378 L 556.22795,174.12502 L 552.42143,173.17352 z "
         style="fill:#0c0c0f;fill-opacity:1.0000000;fill-rule:evenodd;stroke:#000000;stroke-width:1.0000670px;stroke-linecap:butt;stroke-linejoin:miter;stroke-opacity:1.0000000" />
      <path
         sodipodi:nodetypes="ccccccccccccccccccccccccccccccccccccccccscssccccsscccccccccccccccccccc"
         id="path2101"
         d="M 346.45119,253.57552 L 335.98326,265.94505 L 327.41858,274.03283 L 319.32972,282.59635 L 312.19249,290.68413 L 311.24086,305.90817 L 309.33761,314.47170 L 317.42646,322.08372 L 323.13624,397.72820 L 320.28135,396.30095 L 316.47483,390.11618 L 311.71667,382.97991 L 304.10363,375.36788 L 295.06314,367.28011 L 286.02266,353.95907 L 280.31288,346.82280 L 271.74820,343.01679 L 257.94956,340.16228 L 244.62674,328.26849 L 213.22293,302.57791 L 218.93271,288.78112 L 224.64250,273.08133 L 217.50527,261.66329 L 213.69875,253.57552 L 216.55363,243.10898 L 227.49739,241.20598 L 230.35228,229.31219 L 230.82810,227.40919 L 215.60201,226.45768 L 202.75500,221.70017 L 193.23869,209.80638 L 197.99685,203.14586 L 205.60989,206.47612 L 208.94059,214.08815 L 221.78761,214.56390 L 222.26342,207.90338 L 241.77184,209.33063 L 247.95744,196.48534 L 243.19929,188.87332 L 244.62674,183.64005 C 244.62674,183.64005 238.20323,180.30980 237.25160,178.40679 C 236.29997,176.50378 242.72347,170.79477 242.72347,170.79477 C 242.72347,170.79477 245.10255,167.94026 245.10255,166.03725 C 245.10255,164.13425 243.67511,161.75549 241.29603,159.85248 C 238.91695,157.94948 237.01370,155.57072 237.01370,155.57072 L 224.16668,122.26812 L 253.66723,139.87092 L 243.19929,117.98636 C 243.19929,117.98636 268.89331,115.60759 273.17564,117.03485 C 277.45797,118.46210 296.96641,120.84087 299.82130,121.79237 C 302.67619,122.74387 311.71667,142.24968 311.71667,142.24968 L 316.95065,155.57072 L 318.85390,159.85248 L 336.45907,168.41601 L 343.12048,175.07653 L 345.02374,181.73705 L 342.16884,183.64005 L 336.93488,189.34907 L 336.45907,197.91260 L 340.26559,202.67011 L 342.64467,207.90338 L 342.64467,215.99115 L 339.31396,219.32141 L 342.64467,222.17592 L 343.12048,230.73945 L 340.74140,232.64245 L 343.59630,235.02121 L 345.49955,240.73023 L 346.92700,250.24526 L 346.45119,253.57552 z "
         style="fill:#f8d9c7;fill-opacity:1.0000000;fill-rule:evenodd;stroke:#000000;stroke-width:1.0000670px;stroke-linecap:butt;stroke-linejoin:miter;stroke-opacity:1.0000000" />
      <path
         id="path2110"
         d="M 333.54646,182.21280 C 332.11901,181.73705 330.69157,181.26130 329.26412,180.78554 C 327.83666,181.26130 326.40922,181.73705 324.98177,182.21280 C 324.03013,183.32288 323.07851,184.43298 322.12687,185.54306 C 321.96827,186.33597 321.80967,187.12889 321.65107,187.92180 C 322.20077,188.34867 322.53629,189.05465 323.22720,189.28959 C 324.76369,188.67508 326.30019,188.06057 327.83668,187.44606 C 329.65787,185.61706 331.44565,183.72887 333.54646,182.21280 z "
         style="fill:#0c0c0f;fill-opacity:1.0000000;fill-rule:evenodd;stroke:#000000;stroke-width:1.0000670px;stroke-linecap:butt;stroke-linejoin:miter;stroke-opacity:1.0000000" />
      <path
         id="path2142"
         d="M 299.76357,167.46450 C 299.76357,167.46450 304.04591,165.08575 297.38449,163.18274 C 290.72308,161.27974 280.73096,164.61000 280.73096,164.61000 L 289.29564,167.94026 L 295.00543,168.89176 L 299.76357,167.46450 z "
         style="fill:#ffffff;fill-opacity:1.0000000;fill-rule:evenodd;stroke:#000000;stroke-width:1.0000670px;stroke-linecap:butt;stroke-linejoin:miter;stroke-opacity:1.0000000" />
      <path
         id="path2144"
         d="M 297.04804,160.58302 L 293.71733,156.30126 L 289.91081,156.77701 L 283.24940,160.58302 L 276.11217,165.34053"
         style="fill:none;fill-opacity:0.75000000;fill-rule:evenodd;stroke:#000000;stroke-width:1.0000670px;stroke-linecap:butt;stroke-linejoin:miter;stroke-opacity:1.0000000" />
      <path
         sodipodi:nodetypes="ccccccccccccccccccccccccccscccccccccccccccccccccccccccccccccccccccccccccccccccccccccccccccccccccccccsccccccccccscccccccccscccscccccccscccccccccccc"
         id="path2146"
         d="M 190.80189,110.85008 L 182.71304,107.51982 L 181.76140,102.28656 L 182.23722,85.159506 L 177.95488,90.392771 L 176.52744,102.28656 L 179.38233,113.70459 L 184.14048,116.08335 L 183.66467,122.26812 L 168.91439,116.08335 L 175.57580,122.74387 L 181.28559,127.50138 L 180.33396,132.73465 L 164.63206,123.21962 L 158.44646,109.89858 L 160.82554,121.31661 L 150.83342,120.84086 L 159.87391,123.69537 L 167.48695,127.97713 L 160.34972,128.92864 L 152.73667,131.78314 L 144.17201,143.67693 L 146.07526,151.28895 L 150.83342,147.00719 L 132.75244,159.85248 L 145.12363,157.94947 C 145.12363,157.94947 144.64782,169.84326 140.84130,171.74627 C 137.03478,173.64927 128.94592,180.30979 128.94592,180.30979 L 142.74456,176.02803 L 139.41385,187.92181 L 140.36549,199.81560 L 145.12363,211.70939 L 155.11575,228.36069 L 158.44646,232.16670 L 149.40597,247.39074 L 159.39810,242.15748 L 159.87391,246.43924 L 155.11575,249.76950 L 160.82554,250.72100 L 160.82554,256.90577 L 164.63206,260.71178 L 165.58369,265.94505 L 169.86603,264.99355 L 167.01114,268.79956 L 171.76928,268.79956 L 180.33396,278.31459 L 189.37445,289.25687 L 189.85027,293.53863 L 193.18097,293.53863 L 193.65679,298.29615 L 197.46331,297.34465 L 202.22145,305.43242 L 207.45543,305.90817 L 213.64102,303.52941 L 224.10896,274.03283 L 224.10896,262.13903 L 225.06058,253.09976 L 226.01222,241.68173 L 230.29456,227.88494 L 219.35081,227.88494 L 211.73776,225.98193 L 200.79401,222.65167 L 199.36657,218.84566 L 194.60841,213.13664 L 192.22934,211.23364 L 196.98749,204.57311 L 204.60053,208.85488 L 211.73776,219.32141 L 216.49592,213.61239 L 218.39917,217.41840 L 221.25406,209.33063 L 240.76249,209.80638 L 247.89971,196.96109 L 245.04482,187.44606 L 246.47227,184.11580 L 238.85923,174.60077 L 247.42390,172.69777 L 244.56901,168.41601 L 244.09319,166.03725 L 240.76249,160.80398 L 236.00434,156.52222 L 232.19782,142.24968 L 233.14945,131.78314 L 246.94809,136.06491 L 254.56113,141.77392 L 268.35977,153.66771 L 275.02118,156.99797 L 271.69047,150.81320 L 263.12580,141.77392 L 246.94809,127.97713 L 257.89183,129.40439 L 265.02906,134.16190 L 265.02906,125.59838 L 271.69047,133.68615 L 271.21466,124.64687 L 275.97282,151.76471 L 276.92444,124.17112 L 288.81983,135.11340 L 282.63423,123.69537 L 294.52960,133.68615 C 294.52960,133.68615 290.72308,125.12262 292.62635,125.12262 C 294.52960,125.12262 300.71520,133.21040 300.71520,133.21040 L 301.19101,142.24968 L 307.37661,135.58916 L 316.89292,148.91020 L 324.03014,159.37673 L 315.46548,136.54066 L 330.21574,152.71621 L 351.15162,163.65849 L 339.73205,154.14346 L 323.07852,138.91942 C 323.07852,138.91942 324.03014,137.96791 326.40922,139.39517 C 328.78830,140.82242 347.34509,156.99797 347.34509,156.99797 L 337.82878,146.53144 L 334.97390,138.44366 L 324.50596,133.21040 L 338.30461,131.30739 L 322.60270,130.35589 L 319.74781,122.26812 L 331.16737,118.46210 L 315.94129,115.60760 C 315.94129,115.60760 336.87716,111.32583 333.54645,111.32583 C 330.21574,111.32583 314.98966,110.37433 314.98966,110.37433 L 343.06275,89.441269 L 312.61058,105.14106 C 312.61058,105.14106 307.37661,99.907800 308.80406,97.529043 C 310.23151,95.150286 313.08640,90.392771 313.08640,90.392771 L 302.61847,94.198783 L 294.52960,89.441269 L 275.49700,87.062511 L 261.22254,87.538263 L 249.80298,93.723032 L 240.76249,92.771529 C 240.76249,92.771529 237.43178,89.917020 235.05270,89.917020 C 232.67363,89.917020 229.34293,90.868523 229.34293,90.868523 L 237.43178,82.780748 L 243.61738,79.926240 L 235.52853,81.829246 L 227.91548,88.489766 L 224.10896,93.247280 L 216.02010,91.820026 L 212.21357,80.877743 L 209.83450,93.723032 L 206.97961,98.004795 L 197.46331,104.66531 L 190.80189,110.85008 z "
         style="fill:#0c0c0f;fill-opacity:1.0000000;fill-rule:evenodd;stroke:#000000;stroke-width:1.0000670px;stroke-linecap:butt;stroke-linejoin:miter;stroke-opacity:1.0000000" />
      <path
         id="path2900"
         d="M 314.98681,216.34881 C 316.65855,215.11890 318.19810,213.71469 319.54787,212.13812 C 320.81353,210.76515 322.16645,209.46343 323.71795,208.41621 C 324.81940,207.55244 326.05258,206.86446 327.32228,206.29199 C 328.35162,206.03639 329.47993,206.11423 330.47376,206.49028 C 331.58579,206.87100 332.65106,207.39267 333.46039,208.26981 C 334.30487,208.85300 334.55767,209.95354 334.65405,210.91242 C 334.57834,212.18223 334.60917,213.50167 334.05499,214.68001 C 333.66206,215.84410 333.30451,217.02280 332.81660,218.15210 C 332.91580,219.10373 334.65879,219.07371 334.67277,219.67644 C 333.93213,220.07294 333.15765,220.45303 332.29198,220.32628 C 329.82792,220.41095 327.35328,220.55838 324.89706,220.25902 C 323.96863,220.20771 323.01023,220.17888 322.17816,219.71557 C 319.98992,218.79367 317.78727,217.90639 315.57822,217.03567 C 315.38108,216.80673 315.18395,216.57776 314.98681,216.34881 z "
         style="fill:#0c0c0f;fill-opacity:1.0000000;fill-rule:evenodd;stroke:#000000;stroke-width:0.97837025px;stroke-linecap:butt;stroke-linejoin:miter;stroke-opacity:1.0000000" />
      <rect
         transform="matrix(3.908897e-2,-0.999236,0.999909,1.348255e-2,0.000000,0.000000)"
         y="326.86118"
         x="-207.07251"
         height="18.417904"
         width="6.6125107"
         id="rect2913"
         style="fill:#ffffff;fill-opacity:1.0000000;fill-rule:nonzero;stroke:#31bae0;stroke-width:0.00000000;stroke-miterlimit:4.0000000;stroke-dasharray:none;stroke-dashoffset:0.00000000;stroke-opacity:1.0000000" />
      <rect
         transform="matrix(3.996171e-2,-0.999201,0.999913,1.318772e-2,0.000000,0.000000)"
         y="326.56946"
         x="-219.10051"
         height="17.479286"
         width="6.1384945"
         id="rect2915"
         style="fill:#ffffff;fill-opacity:1.0000000;fill-rule:nonzero;stroke:#31bae0;stroke-width:0.00000000;stroke-miterlimit:4.0000000;stroke-dasharray:none;stroke-dashoffset:0.00000000;stroke-opacity:1.0000000" />
      <path
         id="path2062"
         d="M 310.58833,218.46587 C 312.19914,214.57972 313.74969,210.66780 315.39811,206.79778 C 317.28388,204.56105 319.17020,202.32480 321.05626,200.08832 C 326.53393,198.12180 332.80271,197.71991 338.22786,200.06651 C 339.92664,200.97076 341.06794,202.72697 341.41157,204.61931 C 342.35733,206.98321 343.21163,209.52364 342.78427,212.10897 C 342.69452,215.13734 340.85311,218.28033 337.83849,219.05812 C 336.29128,218.98612 334.62789,219.87930 333.19214,218.93030 C 332.28513,217.74016 333.79759,216.40067 333.91896,215.11802 C 334.41115,213.37338 334.95401,211.50609 334.57877,209.68919 C 333.81327,207.57727 331.65298,206.16661 329.50693,205.88579 C 327.39918,205.62378 325.53641,206.91818 323.84121,208.00730 C 320.99657,209.96679 318.87330,212.75157 316.44423,215.17367 C 314.79395,216.77128 312.76520,217.82726 310.58833,218.46587 z "
         style="fill:#d58b9c;fill-opacity:1.0000000;fill-rule:evenodd;stroke:#000000;stroke-width:1.0083033px;stroke-linecap:butt;stroke-linejoin:miter;stroke-opacity:1.0000000" />
      <path
         id="path2044"
         d="M 310.92068,218.52563 C 314.75393,221.54398 318.55631,224.60151 322.40881,227.59540 C 326.59412,229.35152 330.65236,231.76561 335.26677,232.15806 C 337.47103,232.79000 340.01474,232.99102 342.09019,231.86916 C 343.44533,230.64960 342.83801,228.69174 343.02856,227.10248 C 343.23184,225.47450 343.66451,223.34387 342.00901,222.29735 C 340.92409,221.47911 339.70317,220.83632 338.68741,219.93590 C 336.76418,219.04694 334.65977,219.95037 332.65482,219.89322 C 330.16852,220.07535 327.67951,220.22087 325.19511,220.42865 C 321.86440,219.15998 318.53370,217.89131 315.20299,216.62263 C 313.77555,217.25697 312.34811,217.89130 310.92068,218.52563 z "
         style="fill:#d58b9c;fill-opacity:1.0000000;fill-rule:evenodd;stroke:#000000;stroke-width:1.0000670px;stroke-linecap:butt;stroke-linejoin:miter;stroke-opacity:1.0000000" />
      <path
         id="path2919"
         d="M 578.02478,448.17509 L 608.97838,469.03233 L 436.71489,775.16276 L 396.34063,750.26863 L 578.02478,448.17509 z "
         style="fill:none;fill-opacity:0.75000000;fill-rule:evenodd;stroke:#000000;stroke-width:1.0000670px;stroke-linecap:butt;stroke-linejoin:miter;stroke-opacity:1.0000000" />
      <path
         id="path2943"
         d="M 302.61847,237.87572 L 300.71520,239.77873"
         style="fill:none;fill-opacity:0.75000000;fill-rule:evenodd;stroke:#000000;stroke-width:1.0000670px;stroke-linecap:butt;stroke-linejoin:miter;stroke-opacity:1.0000000" />
      <path
         id="path2945"
         d="M 286.44075,233.11820 L 284.53748,235.02121"
         style="fill:none;fill-opacity:0.75000000;fill-rule:evenodd;stroke:#000000;stroke-width:1.0000670px;stroke-linecap:butt;stroke-linejoin:miter;stroke-opacity:1.0000000" />
      <path
         id="path2947"
         d="M 332.11900,240.73022 L 330.21573,242.63323"
         style="fill:none;fill-opacity:0.75000000;fill-rule:evenodd;stroke:#000000;stroke-width:1.0000670px;stroke-linecap:butt;stroke-linejoin:miter;stroke-opacity:1.0000000" />
      <path
         id="path2949"
         d="M 263.60162,223.60317 L 261.69835,225.50618"
         style="fill:none;fill-opacity:0.75000000;fill-rule:evenodd;stroke:#000000;stroke-width:1.0000670px;stroke-linecap:butt;stroke-linejoin:miter;stroke-opacity:1.0000000" />
      <path
         id="path2951"
         d="M 263.60162,240.73022 L 261.69835,242.63323"
         style="fill:none;fill-opacity:0.75000000;fill-rule:evenodd;stroke:#000000;stroke-width:1.0000670px;stroke-linecap:butt;stroke-linejoin:miter;stroke-opacity:1.0000000" />
      <path
         id="path2953"
         d="M 324.50597,248.34224 L 322.60270,250.24525"
         style="fill:none;fill-opacity:0.75000000;fill-rule:evenodd;stroke:#000000;stroke-width:1.0000670px;stroke-linecap:butt;stroke-linejoin:miter;stroke-opacity:1.0000000" />
      <path
         id="path2955"
         d="M 282.63423,242.63323 L 280.73096,244.53624"
         style="fill:none;fill-opacity:0.75000000;fill-rule:evenodd;stroke:#000000;stroke-width:1.0000670px;stroke-linecap:butt;stroke-linejoin:miter;stroke-opacity:1.0000000" />
      <path
         id="path2957"
         d="M 309.27988,255.95428 L 307.37661,257.85729"
         style="fill:none;fill-opacity:0.75000000;fill-rule:evenodd;stroke:#000000;stroke-width:1.0000670px;stroke-linecap:butt;stroke-linejoin:miter;stroke-opacity:1.0000000" />
      <path
         id="path2959"
         d="M 268.23473,255.68653 L 266.33146,257.58954"
         style="fill:none;fill-opacity:0.75000000;fill-rule:evenodd;stroke:#000000;stroke-width:1.0000670px;stroke-linecap:butt;stroke-linejoin:miter;stroke-opacity:1.0000000" />
      <path
         id="path2961"
         d="M 276.92444,269.27531 L 275.02118,271.17832"
         style="fill:none;fill-opacity:0.75000000;fill-rule:evenodd;stroke:#000000;stroke-width:1.0000670px;stroke-linecap:butt;stroke-linejoin:miter;stroke-opacity:1.0000000" />
      <path
         id="path2963"
         d="M 305.03962,271.22959 L 303.13635,273.13260"
         style="fill:none;fill-opacity:0.75000000;fill-rule:evenodd;stroke:#000000;stroke-width:1.0000670px;stroke-linecap:butt;stroke-linejoin:miter;stroke-opacity:1.0000000" />
      <path
         id="path2965"
         d="M 241.53300,254.29578 L 239.62974,256.19879"
         style="fill:none;fill-opacity:0.75000000;fill-rule:evenodd;stroke:#000000;stroke-width:1.0000670px;stroke-linecap:butt;stroke-linejoin:miter;stroke-opacity:1.0000000" />
      <path
         transform="matrix(1.000134,0.000000,0.000000,1.000000,-23.55165,-10.76503)"
         d="M 319.08210 176.52638 A 1.5138319 1.5138319 0 1 1  316.05444,176.52638 A 1.5138319 1.5138319 0 1 1  319.08210 176.52638 z"
         sodipodi:ry="1.5138319"
         sodipodi:rx="1.5138319"
         sodipodi:cy="176.52638"
         sodipodi:cx="317.56827"
         id="path2967"
         style="fill:#0c0c0f;fill-opacity:1.0000000;fill-rule:nonzero;stroke:#31bae0;stroke-width:0.00000000;stroke-miterlimit:4.0000000;stroke-dasharray:none;stroke-dashoffset:0.00000000;stroke-opacity:1.0000000"
         sodipodi:type="arc" />
      <path
         sodipodi:nodetypes="ccccccccc"
         id="path2969"
         d="M 306.84436,152.08902 C 303.55659,147.23759 298.35515,148.31969 294.02410,147.48119 C 289.38062,146.94169 284.70717,148.48223 280.46719,151.02462 C 276.51202,153.12550 273.18854,156.85706 269.60427,159.88424 C 265.78681,164.75068 266.19461,167.10953 269.20150,164.83760 C 271.55566,162.78032 274.03425,161.03168 276.38997,158.96168 C 278.80145,155.52537 282.39025,155.56147 285.41597,153.78883 C 290.19599,152.22330 295.16502,153.46783 299.99930,153.98821 C 302.16953,155.86006 306.13329,156.62651 306.84436,152.08902 z "
         style="fill:#5c4112;fill-opacity:1.0000000;fill-rule:evenodd;stroke:#000000;stroke-width:0.00000000;stroke-linecap:butt;stroke-linejoin:miter;stroke-miterlimit:4.0000000;stroke-dasharray:none;stroke-opacity:1.0000000" />
      <path
         sodipodi:nodetypes="ccccccccccc"
         id="path3704"
         d="M 591.20483,375.85146 C 589.47391,374.34457 592.03218,376.10728 588.70228,373.42408 C 589.69625,371.55066 589.85822,368.98256 588.22284,367.09566 C 586.43035,365.48649 584.18663,363.73509 581.64161,363.99356 C 579.17784,364.63886 576.47960,365.25586 574.50829,366.98531 C 572.81281,368.99202 570.88917,371.31446 570.85857,374.07908 C 571.54264,376.06905 572.37089,378.13419 573.59337,379.83081 C 575.43535,381.57541 577.88271,382.55130 580.35545,381.65368 C 582.87298,381.79298 584.77808,377.39081 586.54686,379.16130 C 587.87692,379.49366 590.66918,382.18238 592.00751,380.24287 C 593.15017,378.70897 593.44845,377.23716 591.20483,375.85146 z "
         style="fill:#fffaf7;fill-opacity:1.0000000;fill-rule:evenodd;stroke:#000000;stroke-width:1.0866547px;stroke-linecap:butt;stroke-linejoin:miter;stroke-opacity:1.0000000" />
      <path
         sodipodi:nodetypes="ccccccccccc"
         id="path3710"
         d="M 585.67649,393.85668 C 583.94557,392.34979 586.50384,394.11250 583.17393,391.42930 C 584.16791,389.55588 584.32988,386.98778 582.69450,385.10088 C 580.90201,383.49171 578.65829,381.74031 576.11327,381.99878 C 573.64950,382.64408 570.95126,383.26108 568.97995,384.99053 C 567.28447,386.99724 565.36083,389.31968 565.33023,392.08430 C 566.01430,394.07427 566.84255,396.13941 568.06503,397.83603 C 569.90701,399.58063 572.35437,400.55652 574.82711,399.65890 C 577.34464,399.79820 579.24974,395.39603 581.01852,397.16652 C 582.34858,397.49888 585.14084,400.18760 586.47917,398.24809 C 587.62183,396.71419 587.92011,395.24238 585.67649,393.85668 z "
         style="fill:#fffaf7;fill-opacity:1.0000000;fill-rule:evenodd;stroke:#000000;stroke-width:1.0866547px;stroke-linecap:butt;stroke-linejoin:miter;stroke-opacity:1.0000000" />
      <path
         sodipodi:nodetypes="ccccccccccc"
         id="path3712"
         d="M 579.28390,411.01345 C 577.55298,409.50656 580.11125,411.26927 576.78135,408.58607 C 577.77532,406.71265 577.93729,404.14455 576.30191,402.25765 C 574.50942,400.64848 572.26570,398.89708 569.72068,399.15555 C 567.25691,399.80085 564.55867,400.41785 562.58737,402.14730 C 560.89188,404.15401 558.96824,406.47645 558.93765,409.24107 C 559.62171,411.23104 560.44996,413.29618 561.67244,414.99280 C 563.51442,416.73740 565.96178,417.71329 568.43452,416.81567 C 570.95206,416.95497 572.85715,412.55280 574.62593,414.32329 C 575.95600,414.65565 578.74825,417.34437 580.08658,415.40486 C 581.22924,413.87096 581.52752,412.39915 579.28390,411.01345 z "
         style="fill:#fffaf7;fill-opacity:1.0000000;fill-rule:evenodd;stroke:#000000;stroke-width:1.0866547px;stroke-linecap:butt;stroke-linejoin:miter;stroke-opacity:1.0000000" />
      <path
         id="path3720"
         d="M 612.00645,374.50193 L 601.91289,375.51116 L 602.58579,383.92133 L 607.96903,383.24852 L 609.31483,379.21163 L 611.66999,378.53882 L 612.00645,374.50193 z "
         style="fill:#fffaf7;fill-opacity:1.0000000;fill-rule:evenodd;stroke:#000000;stroke-width:1.0000670px;stroke-linecap:butt;stroke-linejoin:miter;stroke-opacity:1.0000000" />
      <path
         id="path3722"
         d="M 606.95967,393.00433 L 596.86611,394.01356 L 597.53901,402.42373 L 602.92225,401.75092 L 604.26805,397.71403 L 606.62322,397.04122 L 606.95967,393.00433 z "
         style="fill:#fffaf7;fill-opacity:1.0000000;fill-rule:evenodd;stroke:#000000;stroke-width:1.0000670px;stroke-linecap:butt;stroke-linejoin:miter;stroke-opacity:1.0000000" />
      <path
         id="path3724"
         d="M 599.55773,411.17031 L 589.46417,412.17954 L 590.13707,420.58971 L 595.52031,419.91690 L 596.86611,415.88001 L 599.22127,415.20720 L 599.55773,411.17031 z "
         style="fill:#fffaf7;fill-opacity:1.0000000;fill-rule:evenodd;stroke:#000000;stroke-width:1.0000670px;stroke-linecap:butt;stroke-linejoin:miter;stroke-opacity:1.0000000" />
      <path
         id="path3726"
         d="M 580.37995,449.52072 L 597.87546,415.54360"
         style="fill:none;fill-opacity:0.75000000;fill-rule:evenodd;stroke:#000000;stroke-width:1.0000670px;stroke-linecap:butt;stroke-linejoin:miter;stroke-opacity:1.0000000" />
      <path
         id="path3730"
         d="M 591.81932,456.58526 L 611.67000,377.52960"
         style="fill:none;fill-opacity:0.75000000;fill-rule:evenodd;stroke:#000000;stroke-width:1.0000670px;stroke-linecap:butt;stroke-linejoin:miter;stroke-opacity:1.0000000" />
      <path
         id="path3732"
         d="M 584.41738,451.87556 C 585.76319,450.19353 606.28677,397.04121 606.28677,397.04121"
         style="fill:none;fill-opacity:0.75000000;fill-rule:evenodd;stroke:#000000;stroke-width:1.0000670px;stroke-linecap:butt;stroke-linejoin:miter;stroke-opacity:1.0000000" />
      <path
         id="path3736"
         d="M 635.14691,392.56863 L 641.36881,400.57923 L 634.80831,405.88537 L 631.58751,401.52035 L 633.58690,397.76393 L 632.45218,395.59352 L 635.14691,392.56863 z "
         style="fill:#fffaf7;fill-opacity:1.0000000;fill-rule:evenodd;stroke:#000000;stroke-width:1.0000670px;stroke-linecap:butt;stroke-linejoin:miter;stroke-opacity:1.0000000" />
      <path
         id="path3738"
         d="M 625.87526,410.49872 L 631.43815,418.98011 L 624.47518,423.74600 L 621.61293,419.13797 L 623.90568,415.55302 L 622.94775,413.29901 L 625.87526,410.49872 z "
         style="fill:#fffaf7;fill-opacity:1.0000000;fill-rule:evenodd;stroke:#000000;stroke-width:1.0000670px;stroke-linecap:butt;stroke-linejoin:miter;stroke-opacity:1.0000000" />
      <path
         id="path3740"
         d="M 617.22626,427.64311 L 622.67013,436.20137 L 615.64125,440.86955 L 612.84367,436.22199 L 615.18626,432.66941 L 614.25992,430.40224 L 617.22626,427.64311 z "
         style="fill:#fffaf7;fill-opacity:1.0000000;fill-rule:evenodd;stroke:#000000;stroke-width:1.0000670px;stroke-linecap:butt;stroke-linejoin:miter;stroke-opacity:1.0000000" />
      <path
         id="path3742"
         d="M 596.19321,460.62215 L 633.20294,396.03199"
         style="fill:none;fill-opacity:0.75000000;fill-rule:evenodd;stroke:#000000;stroke-width:1.0000670px;stroke-linecap:butt;stroke-linejoin:miter;stroke-opacity:1.0000000" />
      <path
         id="path3744"
         d="M 603.25870,463.98622 L 614.36162,431.01833"
         style="fill:none;fill-opacity:0.75000000;fill-rule:evenodd;stroke:#000000;stroke-width:1.0000670px;stroke-linecap:butt;stroke-linejoin:miter;stroke-opacity:1.0000000" />
      <g
         transform="matrix(1.000134,0.000000,0.000000,1.000000,37.35149,12.13166)"
         id="g5229">
        <path
           style="fill:#6f6c7f;fill-opacity:1.0000000;fill-rule:evenodd;stroke:#000000;stroke-width:1.0000000px;stroke-linecap:butt;stroke-linejoin:miter;stroke-opacity:1.0000000"
           d="M 351.45388,950.38360 C 352.00608,954.03694 345.61999,945.88388 344.37209,946.68650 C 343.78413,948.49712 341.56673,948.17944 341.17268,950.05220 C 341.60287,951.55681 342.03249,953.06159 342.46239,954.56628 C 344.92919,955.68804 347.39637,956.80899 349.86336,957.93035 C 350.06048,956.19162 353.12991,957.45773 352.00888,958.85827 C 351.57073,960.04736 351.60788,961.63511 350.32173,962.30382 C 347.77773,963.57514 344.90977,964.31211 342.05333,964.00750 C 338.12811,963.64518 336.86694,961.70760 335.21194,957.99731 C 334.19979,955.37954 334.09167,953.38322 334.04150,950.58529 C 334.25581,948.60150 334.12834,946.17922 335.74181,944.71032 C 337.51454,942.90517 337.98011,942.65916 340.40528,942.51923 C 341.72007,942.34169 345.21578,942.84058 346.29515,943.54841 C 347.56331,944.00688 351.07723,948.57416 351.45388,950.38360 z "
           id="path5200"
           sodipodi:nodetypes="cccccccccccccc" />
        <path
           sodipodi:type="arc"
           style="fill:#151517;fill-opacity:1.0000000;fill-rule:nonzero;stroke:#31bae0;stroke-width:0.00000000;stroke-miterlimit:4.0000000;stroke-dasharray:none;stroke-dashoffset:0.00000000;stroke-opacity:1.0000000"
           id="path5213"
           sodipodi:cx="224.38351"
           sodipodi:cy="907.70715"
           sodipodi:rx="6.3917341"
           sodipodi:ry="6.7281413"
           d="M 230.77525 907.70715 A 6.3917341 6.7281413 0 1 1  217.99178,907.70715 A 6.3917341 6.7281413 0 1 1  230.77525 907.70715 z"
           transform="matrix(1.086490,-0.202845,0.247761,1.327070,-122.8378,-204.2850)" />
      </g>
      <g
         transform="matrix(1.000134,0.000000,0.000000,1.000000,10.93252,60.30888)"
         id="g5233">
        <path
           style="fill:#6f6c7f;fill-opacity:1.0000000;fill-rule:evenodd;stroke:#000000;stroke-width:1.0000000px;stroke-linecap:butt;stroke-linejoin:miter;stroke-opacity:1.0000000"
           d="M 351.45388,950.38360 C 352.00608,954.03694 345.61999,945.88388 344.37209,946.68650 C 343.78413,948.49712 341.56673,948.17944 341.17268,950.05220 C 341.60287,951.55681 342.03249,953.06159 342.46239,954.56628 C 344.92919,955.68804 347.39637,956.80899 349.86336,957.93035 C 350.06048,956.19162 353.12991,957.45773 352.00888,958.85827 C 351.57073,960.04736 351.60788,961.63511 350.32173,962.30382 C 347.77773,963.57514 344.90977,964.31211 342.05333,964.00750 C 338.12811,963.64518 336.86694,961.70760 335.21194,957.99731 C 334.19979,955.37954 334.09167,953.38322 334.04150,950.58529 C 334.25581,948.60150 334.12834,946.17922 335.74181,944.71032 C 337.51454,942.90517 337.98011,942.65916 340.40528,942.51923 C 341.72007,942.34169 345.21578,942.84058 346.29515,943.54841 C 347.56331,944.00688 351.07723,948.57416 351.45388,950.38360 z "
           id="path5235"
           sodipodi:nodetypes="cccccccccccccc" />
        <path
           sodipodi:type="arc"
           style="fill:#151517;fill-opacity:1.0000000;fill-rule:nonzero;stroke:#31bae0;stroke-width:0.00000000;stroke-miterlimit:4.0000000;stroke-dasharray:none;stroke-dashoffset:0.00000000;stroke-opacity:1.0000000"
           id="path5237"
           sodipodi:cx="224.38351"
           sodipodi:cy="907.70715"
           sodipodi:rx="6.3917341"
           sodipodi:ry="6.7281413"
           d="M 230.77525 907.70715 A 6.3917341 6.7281413 0 1 1  217.99178,907.70715 A 6.3917341 6.7281413 0 1 1  230.77525 907.70715 z"
           transform="matrix(1.086490,-0.202845,0.247761,1.327070,-122.8378,-204.2850)" />
      </g>
      <path
         id="path5239"
         d="M 310.56087,864.16308 L 302.08782,878.62548 L 369.66042,918.28750 L 377.70983,903.38685 L 310.56087,864.16308 z "
         style="fill:#060604;fill-opacity:1.0000000;fill-rule:evenodd;stroke:#000000;stroke-width:0.90570754px;stroke-linecap:butt;stroke-linejoin:miter;stroke-opacity:1.0000000" />
      <path
         transform="matrix(1.000134,0.000000,0.000000,1.000000,41.15801,31.53894)"
         d="M 279.02822 840.41492 A 1.9030057 1.9030057 0 1 1  275.22221,840.41492 A 1.9030057 1.9030057 0 1 1  279.02822 840.41492 z"
         sodipodi:ry="1.9030057"
         sodipodi:rx="1.9030057"
         sodipodi:cy="840.41492"
         sodipodi:cx="277.12521"
         id="path5241"
         style="fill:#fefefe;fill-opacity:1.0000000;fill-rule:nonzero;stroke:#31bae0;stroke-width:0.00000000;stroke-miterlimit:4.0000000;stroke-dasharray:none;stroke-dashoffset:0.00000000;stroke-opacity:1.0000000"
         sodipodi:type="arc" />
      <path
         id="path2939"
         d="M 395.66772,749.59582 L 315.25566,877.43051"
         style="fill:none;fill-opacity:0.75000000;fill-rule:evenodd;stroke:#000000;stroke-width:1.0000670px;stroke-linecap:butt;stroke-linejoin:miter;stroke-opacity:1.0000000" />
      <path
         transform="matrix(1.000134,0.000000,0.000000,1.000000,48.22555,37.75103)"
         d="M 279.02822 840.41492 A 1.9030057 1.9030057 0 1 1  275.22221,840.41492 A 1.9030057 1.9030057 0 1 1  279.02822 840.41492 z"
         sodipodi:ry="1.9030057"
         sodipodi:rx="1.9030057"
         sodipodi:cy="840.41492"
         sodipodi:cx="277.12521"
         id="path5243"
         style="fill:#fefefe;fill-opacity:1.0000000;fill-rule:nonzero;stroke:#31bae0;stroke-width:0.00000000;stroke-miterlimit:4.0000000;stroke-dasharray:none;stroke-dashoffset:0.00000000;stroke-opacity:1.0000000"
         sodipodi:type="arc" />
      <path
         transform="matrix(1.000134,0.000000,0.000000,1.000000,56.38410,42.20100)"
         d="M 279.02822 840.41492 A 1.9030057 1.9030057 0 1 1  275.22221,840.41492 A 1.9030057 1.9030057 0 1 1  279.02822 840.41492 z"
         sodipodi:ry="1.9030057"
         sodipodi:rx="1.9030057"
         sodipodi:cy="840.41492"
         sodipodi:cx="277.12521"
         id="path5245"
         style="fill:#fefefe;fill-opacity:1.0000000;fill-rule:nonzero;stroke:#31bae0;stroke-width:0.00000000;stroke-miterlimit:4.0000000;stroke-dasharray:none;stroke-dashoffset:0.00000000;stroke-opacity:1.0000000"
         sodipodi:type="arc" />
      <path
         transform="matrix(1.000134,0.000000,0.000000,1.000000,64.94877,45.19639)"
         d="M 279.02822 840.41492 A 1.9030057 1.9030057 0 1 1  275.22221,840.41492 A 1.9030057 1.9030057 0 1 1  279.02822 840.41492 z"
         sodipodi:ry="1.9030057"
         sodipodi:rx="1.9030057"
         sodipodi:cy="840.41492"
         sodipodi:cx="277.12521"
         id="path5247"
         style="fill:#fefefe;fill-opacity:1.0000000;fill-rule:nonzero;stroke:#31bae0;stroke-width:0.00000000;stroke-miterlimit:4.0000000;stroke-dasharray:none;stroke-dashoffset:0.00000000;stroke-opacity:1.0000000"
         sodipodi:type="arc" />
      <path
         transform="matrix(1.000134,0.000000,0.000000,1.000000,72.08595,51.24028)"
         d="M 279.02822 840.41492 A 1.9030057 1.9030057 0 1 1  275.22221,840.41492 A 1.9030057 1.9030057 0 1 1  279.02822 840.41492 z"
         sodipodi:ry="1.9030057"
         sodipodi:rx="1.9030057"
         sodipodi:cy="840.41492"
         sodipodi:cx="277.12521"
         id="path5249"
         style="fill:#fefefe;fill-opacity:1.0000000;fill-rule:nonzero;stroke:#31bae0;stroke-width:0.00000000;stroke-miterlimit:4.0000000;stroke-dasharray:none;stroke-dashoffset:0.00000000;stroke-opacity:1.0000000"
         sodipodi:type="arc" />
      <path
         transform="matrix(1.000134,0.000000,0.000000,1.000000,79.35217,55.73106)"
         d="M 279.02822 840.41492 A 1.9030057 1.9030057 0 1 1  275.22221,840.41492 A 1.9030057 1.9030057 0 1 1  279.02822 840.41492 z"
         sodipodi:ry="1.9030057"
         sodipodi:rx="1.9030057"
         sodipodi:cy="840.41492"
         sodipodi:cx="277.12521"
         id="path5251"
         style="fill:#fefefe;fill-opacity:1.0000000;fill-rule:nonzero;stroke:#31bae0;stroke-width:0.00000000;stroke-miterlimit:4.0000000;stroke-dasharray:none;stroke-dashoffset:0.00000000;stroke-opacity:1.0000000"
         sodipodi:type="arc" />
      <path
         id="path5263"
         d="M 403.06966,865.99268 C 401.36130,875.69671 409.75645,885.48878 404.27794,894.59173 C 396.63451,897.85005 388.66672,896.14035 380.77309,894.81716 C 370.54695,894.84919 363.93648,886.21695 355.82174,881.24046 C 345.00409,872.62118 332.34641,866.01064 323.19021,855.54084 C 319.78549,847.74283 315.38707,836.30190 322.55129,829.65514 C 332.56768,828.94318 338.62433,822.33044 344.29257,814.59278 C 357.46863,798.80817 371.44319,783.55658 384.01207,767.34728 C 387.99984,762.39112 390.36417,750.04378 395.20510,749.97429 C 401.43325,753.14694 409.10343,756.93737 416.80063,762.60445 C 424.56023,767.68763 432.31982,772.77082 440.07941,777.85400 C 427.74283,807.23356 415.40625,836.61314 403.06966,865.99268 z "
         style="fill:#fefefe;fill-opacity:1.0000000;fill-rule:evenodd;stroke:#000000;stroke-width:1.0000670px;stroke-linecap:butt;stroke-linejoin:miter;stroke-opacity:1.0000000" />
      <path
         transform="matrix(1.000134,0.000000,0.000000,1.000000,88.50160,58.27955)"
         d="M 279.02822 840.41492 A 1.9030057 1.9030057 0 1 1  275.22221,840.41492 A 1.9030057 1.9030057 0 1 1  279.02822 840.41492 z"
         sodipodi:ry="1.9030057"
         sodipodi:rx="1.9030057"
         sodipodi:cy="840.41492"
         sodipodi:cx="277.12521"
         id="path5253"
         style="fill:#fefefe;fill-opacity:1.0000000;fill-rule:nonzero;stroke:#31bae0;stroke-width:0.00000000;stroke-miterlimit:4.0000000;stroke-dasharray:none;stroke-dashoffset:0.00000000;stroke-opacity:1.0000000"
         sodipodi:type="arc" />
      <path
         id="path2937"
         d="M 580.68445,449.88687 L 324.03536,880.09201"
         style="fill:none;fill-opacity:0.75000000;fill-rule:evenodd;stroke:#000000;stroke-width:1.0617673px;stroke-linecap:butt;stroke-linejoin:miter;stroke-opacity:1.0000000" />
      <path
         id="path2935"
         d="M 584.41538,451.87770 L 332.41673,884.66112"
         style="fill:none;fill-opacity:0.75000000;fill-rule:evenodd;stroke:#000000;stroke-width:1.0042118px;stroke-linecap:butt;stroke-linejoin:miter;stroke-opacity:1.0000000" />
      <path
         id="path2933"
         d="M 592.15578,456.58526 L 341.16248,887.52272"
         style="fill:none;fill-opacity:0.75000000;fill-rule:evenodd;stroke:#000000;stroke-width:1.0000670px;stroke-linecap:butt;stroke-linejoin:miter;stroke-opacity:1.0000000" />
      <path
         id="path2931"
         d="M 596.86341,460.62526 L 347.55777,894.58415"
         style="fill:none;fill-opacity:0.75000000;fill-rule:evenodd;stroke:#000000;stroke-width:1.0058830px;stroke-linecap:butt;stroke-linejoin:miter;stroke-opacity:1.0000000" />
      <path
         id="path2921"
         d="M 604.26400,465.33535 L 354.62462,899.29346"
         style="fill:none;fill-opacity:0.75000000;fill-rule:evenodd;stroke:#000000;stroke-width:1.0076318px;stroke-linecap:butt;stroke-linejoin:miter;stroke-opacity:1.0000000" />
      <path
         sodipodi:nodetypes="cccccccccccccc"
         id="path8289"
         d="M 524.08585,248.87316 L 638.53227,760.19728 L 650.08696,760.19728 L 660.54119,799.81434 L 659.99097,806.68130 L 655.58919,807.73775 L 715.07203,1054.7417 L 687.20450,1055.1615 L 631.37937,811.43534 L 625.87713,810.90712 L 614.87266,767.59247 L 623.12603,762.31019 L 512.53116,252.57075 L 524.08585,248.87316 z "
         style="fill:#ebf0ff;fill-opacity:1.0000000;fill-rule:evenodd;stroke:#000000;stroke-width:1.1331824px;stroke-linecap:butt;stroke-linejoin:miter;stroke-opacity:1.0000000" />
      <path
         id="path2929"
         d="M 436.37844,774.48994 L 364.04122,901.98822"
         style="fill:none;fill-opacity:0.75000000;fill-rule:evenodd;stroke:#000000;stroke-width:1.0000670px;stroke-linecap:butt;stroke-linejoin:miter;stroke-opacity:1.0000000" />
      <path
         id="path5255"
         d="M 451.51879,757.66959 L 449.50006,769.10743 L 447.48135,776.50839 L 451.51879,787.27341 L 455.55621,793.32874 L 460.93944,798.03844 L 466.99558,802.07532 L 473.72462,804.76658 L 479.10786,806.11221 L 485.16399,806.11221 L 490.54723,807.45784 L 493.23885,811.49472 L 492.56594,816.20442 L 489.20142,822.25975 L 485.16399,828.31507 L 478.43495,831.00633 L 471.03301,837.06166 L 464.30396,841.77136 L 458.24783,845.13543 L 452.86459,851.86357 L 448.82716,859.93734 L 444.78973,868.68392 L 442.77102,882.81302 L 444.11683,896.94212 L 448.15426,915.78091 L 450.84588,925.20031 L 451.51879,935.29252 L 450.17298,944.03911 L 446.13554,948.74881 L 439.40650,951.44006 L 429.98584,948.74881 L 410.47162,935.29252 L 402.39676,929.23720 L 398.35934,921.16343 L 400.37805,911.07121 L 407.78001,900.97900 L 412.49034,892.23242 L 413.16324,876.75769 L 412.49034,865.99267 L 427.96713,799.38407 L 451.51879,757.66959 z "
         style="fill:#fefefe;fill-opacity:1.0000000;fill-rule:evenodd;stroke:#000000;stroke-width:1.0000670px;stroke-linecap:butt;stroke-linejoin:miter;stroke-opacity:1.0000000" />
      <path
         transform="matrix(1.000134,0.000000,0.000000,1.000000,228.1146,-106.9774)"
         d="M 260.37907 920.15417 A 3.0276637 3.0276637 0 1 1  254.32375,920.15417 A 3.0276637 3.0276637 0 1 1  260.37907 920.15417 z"
         sodipodi:ry="3.0276637"
         sodipodi:rx="3.0276637"
         sodipodi:cy="920.15417"
         sodipodi:cx="257.35141"
         id="path5259"
         style="fill:#151517;fill-opacity:1.0000000;fill-rule:nonzero;stroke:#31bae0;stroke-width:0.00000000;stroke-miterlimit:4.0000000;stroke-dasharray:none;stroke-dashoffset:0.00000000;stroke-opacity:1.0000000"
         sodipodi:type="arc" />
      <path
         transform="matrix(1.000134,0.000000,0.000000,1.000000,181.3477,17.82960)"
         d="M 260.37907 920.15417 A 3.0276637 3.0276637 0 1 1  254.32375,920.15417 A 3.0276637 3.0276637 0 1 1  260.37907 920.15417 z"
         sodipodi:ry="3.0276637"
         sodipodi:rx="3.0276637"
         sodipodi:cy="920.15417"
         sodipodi:cx="257.35141"
         id="path5261"
         style="fill:#151517;fill-opacity:1.0000000;fill-rule:nonzero;stroke:#31bae0;stroke-width:0.00000000;stroke-miterlimit:4.0000000;stroke-dasharray:none;stroke-dashoffset:0.00000000;stroke-opacity:1.0000000"
         sodipodi:type="arc" />
      <path
         id="path5995"
         d="M 289.34885,667.51250 L 309.53597,704.51727 L 331.06892,735.46672 L 343.18119,752.95989 L 353.27475,763.05210 L 368.07865,767.76180 L 397.68644,773.81713 L 410.47162,785.25497 L 426.62132,802.07532 L 444.11683,802.07532 L 447.48135,806.78502 L 443.44393,808.80346 L 436.71489,810.82191 L 440.07941,814.85879 L 438.73360,821.58693 L 433.35036,827.64226 L 440.07941,830.33352 L 455.55621,830.33352 L 456.22912,832.35196 L 455.55621,842.44417 L 449.50006,847.15387 L 421.91099,847.15387 L 403.74257,841.09854 L 403.74257,843.78980 L 411.81743,850.51794 L 420.56519,851.86357 L 424.60261,855.90045 L 425.27551,859.26453 L 421.91099,864.64704 L 418.54647,868.01111 L 411.81743,869.35674 L 399.70515,868.01111 L 379.51802,853.20920 L 383.55545,857.91890 L 390.28449,863.97422 L 393.64901,868.01111 L 392.97611,872.04799 L 384.22835,874.06644 L 371.44317,875.41206 L 334.43344,826.96945 L 326.35859,812.16754 L 314.91921,802.74814 L 298.09660,783.90934 L 298.09660,779.87246 L 223.40422,701.15320 L 238.20812,685.67848 L 252.33911,677.60471 L 273.19914,670.20375 L 289.34885,667.51250 z "
         style="fill:#f8d9c7;fill-opacity:1.0000000;fill-rule:evenodd;stroke:#000000;stroke-width:1.0000670px;stroke-linecap:butt;stroke-linejoin:miter;stroke-opacity:1.0000000" />
      <path
         id="path5998"
         d="M 436.71489,810.82191 L 425.94842,801.40251"
         style="fill:none;fill-opacity:0.75000000;fill-rule:evenodd;stroke:#000000;stroke-width:1.0000670px;stroke-linecap:butt;stroke-linejoin:miter;stroke-opacity:1.0000000" />
      <path
         id="path6000"
         d="M 432.67746,826.96945 L 425.94842,823.60538 L 420.56519,822.25975 L 409.79872,820.91412 L 403.06967,819.56849"
         style="fill:none;fill-opacity:0.75000000;fill-rule:evenodd;stroke:#000000;stroke-width:1.0000670px;stroke-linecap:butt;stroke-linejoin:miter;stroke-opacity:1.0000000" />
      <path
         id="path6002"
         d="M 402.99256,806.71525 C 402.30906,809.12779 402.89313,812.44614 400.10868,813.69885 C 398.76205,814.48624 397.20561,814.77042 395.69705,815.07694"
         style="fill:none;fill-opacity:0.75000000;fill-rule:evenodd;stroke:#000000;stroke-width:1.0000670px;stroke-linecap:butt;stroke-linejoin:miter;stroke-opacity:1.0000000" />
      <path
         id="path6012"
         d="M 389.22192,820.09735 C 388.53842,822.50989 389.12249,825.82824 386.33803,827.08095 C 384.99140,827.86834 383.43496,828.15252 381.92640,828.45904"
         style="fill:none;fill-opacity:0.75000000;fill-rule:evenodd;stroke:#000000;stroke-width:1.0000670px;stroke-linecap:butt;stroke-linejoin:miter;stroke-opacity:1.0000000" />
      <path
         id="path6014"
         d="M 372.39931,833.55362 C 371.71581,835.96616 372.29988,839.28451 369.51543,840.53722 C 368.16880,841.32461 366.61236,841.60879 365.10380,841.91531"
         style="fill:none;fill-opacity:0.75000000;fill-rule:evenodd;stroke:#000000;stroke-width:1.0000670px;stroke-linecap:butt;stroke-linejoin:miter;stroke-opacity:1.0000000" />
      <path
         id="path6016"
         d="M 530.77185,655.34760 C 539.26705,648.29388 548.50942,642.05479 556.49351,634.43975 C 560.74561,630.21249 564.65983,625.67476 567.09866,620.13041 C 569.33141,613.98926 576.84240,609.16294 574.62606,601.99240 C 573.80476,595.10462 569.46950,589.60160 566.22823,583.65000 C 562.56578,577.08152 556.52210,572.14593 550.03109,568.48917 C 542.34700,563.21694 534.18856,558.68670 525.76444,554.71661 C 519.58089,552.51072 512.11153,558.44815 516.70575,564.77012 C 520.06832,569.34718 526.31703,570.55899 530.25262,574.66068 C 533.52070,579.02483 543.04714,582.58387 542.28157,587.33258 C 538.67838,591.34005 537.62923,600.02503 543.76758,601.91476 C 548.73666,604.87519 537.77186,598.66958 535.61178,597.52892 C 529.00241,593.88645 522.39302,590.24398 515.78365,586.60150 C 508.73374,583.83018 503.24080,594.03272 509.01895,597.80352 C 515.02650,599.84874 519.67842,603.89591 524.06968,608.37246 C 528.36560,612.37494 532.66153,616.37740 536.95744,620.37988 C 530.36016,614.18058 523.91245,607.82231 517.22194,601.72235 C 510.65306,595.50304 504.45821,604.20801 510.43145,609.52937 C 515.03275,615.81082 519.54350,622.15943 524.11044,628.46765 C 521.22765,636.25831 516.48345,643.20453 512.90179,650.62837 C 518.56728,654.19885 523.64637,659.84940 530.77185,655.34760 z "
         style="fill:#f8d9c7;fill-opacity:1.0000000;fill-rule:evenodd;stroke:#000000;stroke-width:1.0000670px;stroke-linecap:butt;stroke-linejoin:miter;stroke-opacity:1.0000000" />
      <path
         id="path6024"
         d="M 542.66723,586.36365 C 542.66723,586.36365 548.85283,585.41214 549.80445,585.65002 C 550.75608,585.88790 557.89331,588.50453 557.89331,588.50453 L 563.60309,589.45603"
         style="fill:none;fill-opacity:0.75000000;fill-rule:evenodd;stroke:#000000;stroke-width:1.0000670px;stroke-linecap:butt;stroke-linejoin:miter;stroke-opacity:1.0000000" />
      <path
         id="path6026"
         d="M 544.57048,602.06345 L 554.08679,603.96645 L 561.93774,605.15583"
         style="fill:none;fill-opacity:0.75000000;fill-rule:evenodd;stroke:#000000;stroke-width:1.0000670px;stroke-linecap:butt;stroke-linejoin:miter;stroke-opacity:1.0000000" />
      <path
         id="path6028"
         d="M 549.56655,609.67548 C 549.04119,612.35608 549.61681,615.46463 547.51382,617.60831 C 545.80028,619.73506 542.91000,619.47456 540.52603,620.14203"
         style="fill:none;fill-opacity:0.75000000;fill-rule:evenodd;stroke:#000000;stroke-width:1.0000670px;stroke-linecap:butt;stroke-linejoin:miter;stroke-opacity:1.0000000" />
      <path
         id="path6039"
         d="M 536.24373,623.47229 C 537.30596,625.45905 537.24122,628.05770 534.95593,629.10813 C 533.44395,631.00689 530.97059,631.28952 528.86348,630.27727 L 528.51118,630.19659 L 528.15487,630.13275"
         style="fill:none;fill-opacity:0.75000000;fill-rule:evenodd;stroke:#000000;stroke-width:1.0000670px;stroke-linecap:butt;stroke-linejoin:miter;stroke-opacity:1.0000000" />
      <path
         sodipodi:nodetypes="cccccccccc"
         id="path8291"
         d="M 626.12927,761.29292 L 640.50383,760.28202 L 651.15164,760.28202 L 661.79947,798.69655 L 661.79947,803.75109 L 657.00796,804.76200 L 634.64752,807.79473 L 627.00112,806.84323 L 618.14339,766.85292 L 626.12927,761.29292 z "
         style="fill:#050827;fill-opacity:1.0000000;fill-rule:evenodd;stroke:#000000;stroke-width:1.0903760px;stroke-linecap:butt;stroke-linejoin:miter;stroke-opacity:1.0000000" />
      <path
         id="path6056"
         d="M 311.55469,290.06376 L 302.13403,290.06376 L 288.00304,286.69969 L 283.29271,283.33562"
         style="fill:none;fill-opacity:0.75000000;fill-rule:evenodd;stroke:#000000;stroke-width:1.0000670px;stroke-linecap:butt;stroke-linejoin:miter;stroke-opacity:1.0000000" />
      <path
         id="path6058"
         d="M 308.63308,313.61226 L 294.87972,313.61226 L 274.24967,310.24819 L 267.37298,306.88412"
         style="fill:none;fill-opacity:0.75000000;fill-rule:evenodd;stroke:#000000;stroke-width:1.2083503px;stroke-linecap:butt;stroke-linejoin:miter;stroke-opacity:1.0000000" />
      <path
         id="path6060"
         d="M 305.49855,335.14231 L 309.53597,351.96267 L 305.49855,335.14231 z "
         style="fill:none;fill-opacity:0.75000000;fill-rule:evenodd;stroke:#000000;stroke-width:1.0000670px;stroke-linecap:butt;stroke-linejoin:miter;stroke-opacity:1.0000000" />
      <path
         id="path6062"
         d="M 295.40499,337.83357 L 304.15274,351.28985 L 295.40499,337.83357 z "
         style="fill:none;fill-opacity:0.75000000;fill-rule:evenodd;stroke:#000000;stroke-width:1.0000670px;stroke-linecap:butt;stroke-linejoin:miter;stroke-opacity:1.0000000" />
      <path
         id="path6112"
         d="M 180.33396,366.80436 L 188.89863,370.13462 L 196.51167,374.89213 L 202.22145,380.60115 L 208.88287,390.11618 L 214.11684,397.25245 L 219.35080,409.14624 L 224.58477,423.89453 L 230.29456,444.82759 L 236.48015,478.13020 L 247.42390,557.58069 L 247.42390,571.85323 L 248.37553,587.07727 L 246.47227,599.44681 L 246.94809,607.05884 L 254.08531,616.09811 L 291.19890,667.00352 L 281.68259,668.90652 L 263.60162,673.18829 L 251.23042,677.94580 L 236.95597,686.03357 L 224.10896,701.73337 L 209.83449,707.91814 L 197.46331,686.50933 C 197.46331,686.50933 191.75352,667.47927 189.37444,664.14901 C 186.99537,660.81875 180.33396,646.54620 180.33396,646.54620 L 172.72091,619.90412 C 172.72091,619.90412 152.73667,572.32898 151.78505,570.42597 C 150.83342,568.52297 134.17989,509.52979 134.17989,509.52979 L 127.99429,488.12098 L 122.76032,449.58511 L 122.76032,409.14624 L 129.89754,392.01918 L 140.84130,377.74664 L 155.59157,366.80436 L 167.48695,364.42560 L 180.33396,366.80436 z "
         style="fill:#363b34;fill-opacity:1.0000000;fill-rule:evenodd;stroke:#000000;stroke-width:1.0000670px;stroke-linecap:butt;stroke-linejoin:miter;stroke-opacity:1.0000000" />
      <path
         id="path6064"
         d="M 322.99406,396.36841 C 320.52674,366.31604 318.05943,336.26367 315.59212,306.21130 C 321.85180,309.99553 327.91251,314.27831 334.29456,317.75593 C 338.92623,318.47884 344.70200,319.86448 345.81181,325.12204 C 349.90415,337.95657 352.43313,351.50254 358.92201,363.39314 C 363.32004,369.67519 367.71806,375.95724 372.11608,382.23929 C 365.92110,378.59173 358.82593,376.23891 353.27427,371.66607 C 349.23700,368.01380 345.19974,364.36153 341.16247,360.70926 C 341.16247,352.63549 341.16247,344.56172 341.16247,336.48795 C 340.04096,367.88594 338.91945,399.28393 337.79795,430.68192 C 333.31192,423.50523 328.82590,416.32854 324.33988,409.15186 C 320.62125,408.80059 318.13395,406.62880 316.29121,403.50406 C 307.12602,391.86305 298.25318,379.91791 288.90570,368.46652 C 282.24778,363.16115 274.75664,359.16512 267.38603,354.99245 C 263.84844,351.72881 259.77480,349.41774 255.14385,348.09703 C 251.10703,346.56909 246.76701,345.50930 244.16300,341.76921 C 242.15673,338.62778 239.00475,337.90377 235.48082,337.96455 C 232.26912,337.96861 230.47733,342.12630 227.84509,343.82543 C 224.11200,347.67393 220.17059,351.23155 215.12053,353.24113 C 203.71185,359.40616 191.76528,364.52204 179.33031,368.22190 C 175.56880,370.03456 179.91089,361.71474 174.42667,363.51823 C 166.65598,362.47242 158.96083,359.82009 151.07362,361.25217 C 146.04067,361.89775 140.55187,361.00509 136.33412,364.40158 C 130.72201,367.73148 136.11714,363.94726 138.44415,362.14601 C 146.98113,355.68434 155.36455,348.95753 164.57374,343.50385 C 167.02570,340.67254 169.70509,338.20916 173.54880,337.62946 C 176.91393,336.79174 180.09470,335.71266 181.40925,332.19057 C 184.41933,328.00809 186.92659,323.25609 190.24612,319.42408 C 196.76407,315.77252 204.35416,313.66362 209.34046,307.80819 C 211.79787,306.40788 214.14709,300.68814 216.73762,304.60296 C 230.39919,316.12837 244.06076,327.65379 257.72234,339.17920 C 265.36627,341.28444 273.35360,343.21448 280.24604,347.02230 C 285.79024,354.33748 290.63762,362.28079 296.62610,369.19548 C 301.91333,374.17253 307.81601,378.63548 312.80486,383.83562 C 315.99267,388.23912 317.71740,394.01911 322.99406,396.36841 z "
         style="fill:#525e5e;fill-opacity:1.0000000;fill-rule:evenodd;stroke:#000000;stroke-width:1.0000670px;stroke-linecap:butt;stroke-linejoin:miter;stroke-opacity:1.0000000" />
      <path
         id="path6071"
         d="M 288.81982,256.43003 L 286.91655,258.33304"
         style="fill:none;fill-opacity:0.75000000;fill-rule:evenodd;stroke:#000000;stroke-width:1.0000670px;stroke-linecap:butt;stroke-linejoin:miter;stroke-opacity:1.0000000" />
      <path
         id="path6073"
         d="M 336.87716,251.19675 L 334.97389,253.09976"
         style="fill:none;fill-opacity:0.75000000;fill-rule:evenodd;stroke:#000000;stroke-width:1.0000670px;stroke-linecap:butt;stroke-linejoin:miter;stroke-opacity:1.0000000" />
      <path
         id="path6075"
         d="M 323.07852,261.66328 L 321.17525,263.56629"
         style="fill:none;fill-opacity:0.75000000;fill-rule:evenodd;stroke:#000000;stroke-width:1.0000670px;stroke-linecap:butt;stroke-linejoin:miter;stroke-opacity:1.0000000" />
      <path
         id="path6077"
         d="M 241.23830,232.64245 L 239.33504,234.54546"
         style="fill:none;fill-opacity:0.75000000;fill-rule:evenodd;stroke:#000000;stroke-width:1.0000670px;stroke-linecap:butt;stroke-linejoin:miter;stroke-opacity:1.0000000" />
      <path
         id="path6081"
         d="M 313.18693,762.83797 C 318.13781,770.04795 307.74024,779.80615 301.13758,772.99412"
         style="fill:none;fill-opacity:0.75000000;fill-rule:evenodd;stroke:#000000;stroke-width:1.0000670px;stroke-linecap:butt;stroke-linejoin:miter;stroke-opacity:1.0000000" />
      <path
         id="path6114"
         d="M 336.87716,428.17629 L 335.92553,446.25485 L 336.40134,458.62439 L 338.30460,471.46968 L 345.91765,498.11176 L 352.10325,522.37508 L 353.53069,532.36586 L 354.95813,547.58991 L 367.80514,598.97106 L 372.08748,613.71936 L 383.03123,631.79791 L 388.74101,644.64320 L 389.69264,666.52777 L 388.74101,675.56704"
         style="fill:none;fill-opacity:0.75000000;fill-rule:evenodd;stroke:#000000;stroke-width:1.0000670px;stroke-linecap:butt;stroke-linejoin:miter;stroke-opacity:1.0000000" />
      <path
         transform="matrix(0.937626,0.000000,0.000000,0.906250,62.97788,54.19834)"
         d="M 300.67492 452.91537 A 7.6120229 7.6120229 0 1 1  285.45087,452.91537 A 7.6120229 7.6120229 0 1 1  300.67492 452.91537 z"
         sodipodi:ry="7.6120229"
         sodipodi:rx="7.6120229"
         sodipodi:cy="452.91537"
         sodipodi:cx="293.06290"
         id="path6116"
         style="fill:#0c0c0f;fill-opacity:1.0000000;fill-rule:nonzero;stroke:#31bae0;stroke-width:0.00000000;stroke-miterlimit:4.0000000;stroke-dasharray:none;stroke-dashoffset:0.00000000;stroke-opacity:1.0000000"
         sodipodi:type="arc" />
      <path
         transform="matrix(0.937626,0.000000,0.000000,0.906250,76.66106,109.5418)"
         d="M 300.67492 452.91537 A 7.6120229 7.6120229 0 1 1  285.45087,452.91537 A 7.6120229 7.6120229 0 1 1  300.67492 452.91537 z"
         sodipodi:ry="7.6120229"
         sodipodi:rx="7.6120229"
         sodipodi:cy="452.91537"
         sodipodi:cx="293.06290"
         id="path6118"
         style="fill:#101113;fill-opacity:1.0000000;fill-rule:nonzero;stroke:#31bae0;stroke-width:0.00000000;stroke-miterlimit:4.0000000;stroke-dasharray:none;stroke-dashoffset:0.00000000;stroke-opacity:1.0000000"
         sodipodi:type="arc" />
      <path
         transform="matrix(0.937626,0.000000,0.000000,0.906250,88.67193,169.1262)"
         d="M 300.67492 452.91537 A 7.6120229 7.6120229 0 1 1  285.45087,452.91537 A 7.6120229 7.6120229 0 1 1  300.67492 452.91537 z"
         sodipodi:ry="7.6120229"
         sodipodi:rx="7.6120229"
         sodipodi:cy="452.91537"
         sodipodi:cx="293.06290"
         id="path6120"
         style="fill:#101113;fill-opacity:1.0000000;fill-rule:nonzero;stroke:#31bae0;stroke-width:0.00000000;stroke-miterlimit:4.0000000;stroke-dasharray:none;stroke-dashoffset:0.00000000;stroke-opacity:1.0000000"
         sodipodi:type="arc" />
      <path
         transform="matrix(0.937626,0.000000,0.000000,0.906250,109.0981,222.8044)"
         d="M 300.67492 452.91537 A 7.6120229 7.6120229 0 1 1  285.45087,452.91537 A 7.6120229 7.6120229 0 1 1  300.67492 452.91537 z"
         sodipodi:ry="7.6120229"
         sodipodi:rx="7.6120229"
         sodipodi:cy="452.91537"
         sodipodi:cx="293.06290"
         id="path6122"
         style="fill:#101113;fill-opacity:1.0000000;fill-rule:nonzero;stroke:#31bae0;stroke-width:0.00000000;stroke-miterlimit:4.0000000;stroke-dasharray:none;stroke-dashoffset:0.00000000;stroke-opacity:1.0000000"
         sodipodi:type="arc" />
      <path
         id="path6124"
         d="M 425.85461,644.64319 C 427.99821,590.94381 412.30500,538.69241 410.15269,485.26647 C 405.24802,451.00844 395.85395,415.60020 371.61165,389.64044"
         style="fill:none;fill-opacity:0.75000000;fill-rule:evenodd;stroke:#000000;stroke-width:1.0000670px;stroke-linecap:butt;stroke-linejoin:miter;stroke-opacity:1.0000000" />
      <path
         id="path6128"
         d="M 322.12688,465.28491 L 353.05487,464.33340 L 322.12688,465.28491 z "
         style="fill:none;fill-opacity:0.75000000;fill-rule:evenodd;stroke:#000000;stroke-width:1.0000670px;stroke-linecap:butt;stroke-linejoin:miter;stroke-opacity:1.0000000" />
      <path
         id="path6132"
         d="M 335.21180,519.99633 L 366.13980,519.04482 L 335.21180,519.99633 z "
         style="fill:none;fill-opacity:0.75000000;fill-rule:evenodd;stroke:#000000;stroke-width:1.0000670px;stroke-linecap:butt;stroke-linejoin:miter;stroke-opacity:1.0000000" />
      <path
         id="path6134"
         d="M 346.15554,578.98950 L 377.08353,578.03799 L 346.15554,578.98950 z "
         style="fill:none;fill-opacity:0.75000000;fill-rule:evenodd;stroke:#000000;stroke-width:1.0000670px;stroke-linecap:butt;stroke-linejoin:miter;stroke-opacity:1.0000000" />
      <path
         id="path6136"
         d="M 368.51886,634.65242 L 399.44686,633.70091 L 368.51886,634.65242 z "
         style="fill:none;fill-opacity:0.75000000;fill-rule:evenodd;stroke:#000000;stroke-width:1.0000670px;stroke-linecap:butt;stroke-linejoin:miter;stroke-opacity:1.0000000" />
    </g>
  </g>
</svg>
